<svg width="14" height="14" viewBox="0 0 14 14" fill="#61dda0" xmlns="http://www.w3.org/2000/svg">
<defs>
    <symbol id="logo" viewBox="0 0 15 15">
        <path d="M10.0568 7.92746H12.9686C12.9911 7.72553 13 7.51918 13 7.30825C13 6.31867 12.7343 5.39049 12.2707 4.59117C12.7503 3.31681 12.7332 2.23523 12.0911 1.58883C11.4806 0.980932 9.84247 1.07962 7.99064 1.89966C7.85367 1.88926 7.71536 1.88396 7.57572 1.88396C5.03401 1.88396 2.90147 3.63306 2.31205 5.98984C3.10937 4.96902 3.94819 4.22889 5.06875 3.6899C4.96686 3.7854 4.37236 4.3764 4.27237 4.47647C1.31741 7.43053 0.385563 11.2895 1.38824 12.2923C2.15041 13.0543 3.53164 12.9256 5.11821 12.1486C5.85595 12.5243 6.69099 12.7362 7.57567 12.7362C9.95806 12.7362 11.977 11.2027 12.7084 9.06696H9.77414C9.37037 9.81181 8.58072 10.3188 7.67443 10.3188C6.76816 10.3188 5.97849 9.81181 5.57473 9.06696C5.39524 8.73052 5.29207 8.34469 5.29207 7.93634V7.92734L10.0568 7.92746ZM5.29652 6.49622C5.36382 5.29832 6.35984 4.34264 7.5757 4.34264C8.79157 4.34264 9.78761 5.29829 9.85489 6.49622H5.29652ZM12.0646 2.19117C12.4781 2.6091 12.4678 3.37802 12.1141 4.33783C11.508 3.4138 10.6274 2.68565 9.58786 2.2699C10.6994 1.79328 11.6035 1.73011 12.0646 2.19117ZM2.15318 12.1021C1.62544 11.5742 1.78454 10.4662 2.4644 9.13134C2.88761 10.3189 3.71222 11.3158 4.77529 11.9581C3.59811 12.4924 2.63463 12.5832 2.15318 12.1021Z" fill="#61dda0"/>
    </symbol>
</defs>
</svg>
